# xmcd
#
# Track frame offsets: 
#        182
#        23935
#        40130
#        60662
#        84497
#        102850
#        120687
#        147572
#        166517
#        189155
#        210320
#        229442
#        251785
#        273027
#
# Disc length: 3892 seconds
#
# Revision: 6
# Processed by: cddbd v1.5.2PL0 Copyright (c) Steve Scherf et al.
# Submitted via: ExactAudioCopy v0.95b4
#
DISCID=b80f320e
DTITLE=Spooks - S.I.O.S.O.S. Volume One
DYEAR=2000
DGENRE=Hip-Hop
TTITLE0=Other Script
TTITLE1=The Mission
TTITLE2=Things I've Seen
TTITLE3=They Don't Know
TTITLE4=I Got U
TTITLE5=Flesh Not Bone
TTITLE6=Sweet Revenge
TTITLE7=Deep Cutz
TTITLE8=Karma Hotel
TTITLE9=Safe House
TTITLE10=Something Fresh
TTITLE11=Swindley's Maracas
TTITLE12=B**** Blood
TTITLE13=Murder
EXTD=ID3G:   0
EXTT0=
EXTT1=
EXTT2=
EXTT3=
EXTT4=
EXTT5=
EXTT6=
EXTT7=
EXTT8=
EXTT9=
EXTT10=
EXTT11=
EXTT12=
EXTT13=
PLAYORDER=
